<svg width="32" height="23" viewBox="0 0 32 23" fill="none" xmlns="http://www.w3.org/2000/svg">
<path d="M30 0.5C31.1046 0.5 32 1.39543 32 2.5V20.5C32 21.6046 31.1046 22.5 30 22.5H2L1.7959 22.4893C0.854346 22.3938 0.1062 21.6457 0.0107422 20.7041L0 20.5V2.5C0 1.46435 0.787223 0.613005 1.7959 0.510742L2 0.5H30ZM19.1387 13.0752C17.308 14.5535 14.6897 14.5542 12.8594 13.0752L4.375 20.5H27.624L19.1387 13.0752ZM20.6611 11.75L30 19.9209V3.57812L20.6611 11.75ZM2 19.9199L11.3369 11.749L2 3.57812V19.9199ZM14.0244 11.4424C15.1555 12.4321 16.8445 12.4321 17.9756 11.4424L28.1953 2.5H3.80469L14.0244 11.4424Z" fill="#FFFFF7"/>
</svg>
